<?xml version="1.0" standalone="no"?>
<!DOCTYPE svg PUBLIC "-//W3C//DTD SVG 20010904//EN"
 "http://www.w3.org/TR/2001/REC-SVG-20010904/DTD/svg10.dtd">
<svg version="1.0" xmlns="http://www.w3.org/2000/svg"
 width="300.000000pt" height="300.000000pt" viewBox="0 0 300.000000 300.000000"
 preserveAspectRatio="xMidYMid meet">
<metadata>
Created by potrace 1.10, written by Peter Selinger 2001-2011
</metadata>
<g transform="translate(0.000000,300.000000) scale(0.100000,-0.100000)"
fill="#000000" stroke="none">
<path d="M190 2010 l0 -830 240 0 240 0 0 90 0 90 -33 0 c-49 0 -151 55 -193
103 -85 97 -127 246 -106 373 24 142 118 272 227 313 54 20 74 21 514 21 513
0 523 -1 609 -69 27 -21 63 -61 81 -87 35 -54 71 -159 71 -210 l0 -34 75 0 75
0 -2 288 -3 287 -823 3 -822 2 6 28 c25 102 112 215 202 259 l57 28 895 0 895
0 57 -28 c107 -53 190 -173 211 -306 l11 -71 73 0 73 0 0 290 0 290 -1315 0
-1315 0 0 -830z"/>
<path d="M2330 1826 l0 -83 48 -7 c125 -17 235 -133 277 -293 48 -183 -34
-394 -186 -478 l-54 -30 -481 -3 c-467 -3 -483 -2 -537 18 -118 44 -207 164
-230 309 l-11 71 -73 0 -73 0 0 -290 0 -290 826 0 826 0 -7 -27 c-25 -106
-118 -224 -208 -264 l-52 -24 -895 0 -895 0 -47 22 c-112 52 -196 170 -219
309 l-13 75 -71 -3 -70 -3 -3 -287 -2 -288 1320 0 1320 0 0 825 0 825 -245 0
-245 0 0 -84z"/>
</g>
</svg>
